<svg xmlns="http://www.w3.org/2000/svg" viewBox="0 0 240 258" width="240" height="258"><line x1="26.0" y1="40.5" x2="214.0" y2="40.5" stroke="#555" stroke-width="1.3"/><line x1="26.0" y1="40.5" x2="214.0" y2="120.0" stroke="#555" stroke-width="1.3"/><line x1="26.0" y1="40.5" x2="214.0" y2="199.5" stroke="#555" stroke-width="1.3"/><line x1="26.0" y1="120.0" x2="214.0" y2="40.5" stroke="#555" stroke-width="1.3"/><line x1="26.0" y1="120.0" x2="214.0" y2="120.0" stroke="#555" stroke-width="1.3"/><line x1="26.0" y1="120.0" x2="214.0" y2="199.5" stroke="#555" stroke-width="1.3"/><line x1="26.0" y1="199.5" x2="214.0" y2="40.5" stroke="#555" stroke-width="1.3"/><line x1="26.0" y1="199.5" x2="214.0" y2="120.0" stroke="#555" stroke-width="1.3"/><line x1="26.0" y1="199.5" x2="214.0" y2="199.5" stroke="#555" stroke-width="1.3"/><circle cx="26.0" cy="40.5" r="11" fill="#fff" stroke="#222" stroke-width="1.3"/><text x="26.0" y="44.4" font-family="Georgia,serif" font-size="11" text-anchor="middle" fill="#222">0</text><circle cx="26.0" cy="120.0" r="11" fill="#fff" stroke="#222" stroke-width="1.3"/><text x="26.0" y="123.9" font-family="Georgia,serif" font-size="11" text-anchor="middle" fill="#222">1</text><circle cx="26.0" cy="199.5" r="11" fill="#fff" stroke="#222" stroke-width="1.3"/><text x="26.0" y="203.4" font-family="Georgia,serif" font-size="11" text-anchor="middle" fill="#222">2</text><circle cx="214.0" cy="40.5" r="11" fill="#fff" stroke="#222" stroke-width="1.3"/><text x="214.0" y="44.4" font-family="Georgia,serif" font-size="11" text-anchor="middle" fill="#222">3</text><circle cx="214.0" cy="120.0" r="11" fill="#fff" stroke="#222" stroke-width="1.3"/><text x="214.0" y="123.9" font-family="Georgia,serif" font-size="11" text-anchor="middle" fill="#222">4</text><circle cx="214.0" cy="199.5" r="11" fill="#fff" stroke="#222" stroke-width="1.3"/><text x="214.0" y="203.4" font-family="Georgia,serif" font-size="11" text-anchor="middle" fill="#222">5</text><text x="120.0" y="254" font-family="Georgia,serif" font-size="10" text-anchor="middle" fill="#666">K3,3 - bipartite, and not planar</text></svg>